<svg xmlns="http://www.w3.org/2000/svg" xmlns:xlink="http://www.w3.org/1999/xlink" version="1.1" width="100" 
height="100" viewBox="0 0 3171.4285714285716 2618.6918750410646">
    <g transform="scale(8.571428571428571) translate(10, 10)">
        <defs id="SvgjsDefs2814"><linearGradient id="SvgjsLinearGradient2821"><stop id="SvgjsStop2822" stop-color="#ef4136" offset="0"></stop><stop id="SvgjsStop2823" stop-color="#fbb040" offset="1"></stop></linearGradient><linearGradient id="SvgjsLinearGradient2824"><stop id="SvgjsStop2825" stop-color="#ef4136" offset="0"></stop><stop id="SvgjsStop2826" stop-color="#fbb040" offset="1"></stop></linearGradient><linearGradient id="SvgjsLinearGradient2827"><stop id="SvgjsStop2828" stop-color="#ef4136" offset="0"></stop><stop id="SvgjsStop2829" stop-color="#fbb040" offset="1"></stop></linearGradient></defs><g id="SvgjsG2815" featureKey="symbolFeature-0" transform="matrix(2.188090662482735,0,0,2.188090662482735,-33.0351891699805,-176.65852255010327)" fill="url(#SvgjsLinearGradient2821)"><path xmlns="http://www.w3.org/2000/svg" d="M120.999,81.15c0,0-13.696-3.266-25.332,8.557c-8.659,8.799-11.379,15.98-14.901,24.469c2.556,2.516,5.234,5.274,7.79,7.79  c8.432-3.658,15.608-6.577,24.266-15.376C124.459,94.769,120.999,81.15,120.999,81.15z M110.041,99.663  c-2.009,2.041-5.293,2.067-7.334,0.059c-2.041-2.009-2.067-5.292-0.058-7.334c2.009-2.041,5.292-2.067,7.333-0.059  C112.024,94.338,112.05,97.622,110.041,99.663z M81.984,101.857c-10.209-3.346-13.415,7.938-13.415,7.938l9.106,1.654  C79.01,108.219,80.324,105.06,81.984,101.857z M91.003,125.157l-0.055,0.024l1.602,8.821c0,0,10.985-3.252,7.909-13.261  C97.307,122.423,94.19,123.778,91.003,125.157z M82.328,126.963c-1.89,1.921-12.465,5.709-12.465,5.709s3.619-10.633,5.509-12.554  s4.98-1.946,6.9-0.055S84.219,125.042,82.328,126.963z"></path></g><g id="SvgjsG2816" featureKey="nameFeature-0" transform="matrix(2.6417704616395294,0,0,2.6417704616395294,10.567080586863797,125.27054403793446)" fill="url(#SvgjsLinearGradient2824)"><path d="M18.08 26.119999999999997 c0.24 1.96 -0.36 3.88 -1.64 5.56 c-4.72 6 -18.4 7.72 -19.92 7.88 l-0.52 -4.6 c3.64 -0.4 13.8 -2.36 16.8 -6.16 c0.52 -0.68 0.76 -1.36 0.68 -2.12 c-0.08 -0.64 -0.32 -1.08 -0.8 -1.4 c-1.4 -0.96 -4.28 -0.96 -6.56 -0.68 l-0.8 6.32 l-4.6 -0.56 l1.96 -15.6 c-0.84 0.24 -1.72 0.48 -2.64 0.8 l-1.52 -4.36 c5.8 -2 13.48 -3.76 17.32 -0.96 c1.04 0.76 2.28 2.16 2.28 4.68 c-0.04 2.64 -1.56 4.6 -3.56 6.08 c0.24 0.16 0.52 0.32 0.76 0.48 c1.56 1.08 2.52 2.68 2.76 4.64 z M6.76 19.6 c3.36 -1.04 6.68 -2.76 6.72 -4.72 c0 -0.64 -0.2 -0.8 -0.36 -0.88 c-0.76 -0.56 -2.68 -0.76 -5.64 -0.32 z M25.005000000000003 37.48 c-1.8 0 -3.44 -0.8 -4.64 -2.24 c-2 -2.36 -2.64 -6.24 -1.84 -10.64 c1.36 -7.48 5.68 -12.6 10.4 -12.52 c2.2 0.04 4.04 0.88 5.32 2.44 c1.88 2.32 2.44 6.08 1.56 10.92 l0 0 c-1.4 7.92 -6.48 12.04 -10.8 12.04 z M28.805 16.72 c-1.72 0 -4.6 2.68 -5.72 8.72 c-0.64 3.52 0.04 5.88 0.84 6.84 c0.4 0.48 0.8 0.56 1.08 0.56 c2 0 5.24 -2.56 6.24 -8.2 c0.6 -3.32 0.36 -6 -0.6 -7.16 c-0.28 -0.36 -0.72 -0.72 -1.8 -0.76 l-0.04 0 z M42.21000000000001 37.48 c-1.8 0 -3.44 -0.8 -4.64 -2.24 c-2 -2.36 -2.64 -6.24 -1.84 -10.64 c1.36 -7.48 5.68 -12.6 10.4 -12.52 c2.2 0.04 4.04 0.88 5.32 2.44 c1.88 2.32 2.44 6.08 1.56 10.92 l0 0 c-1.4 7.92 -6.48 12.04 -10.8 12.04 z M46.010000000000005 16.72 c-1.72 0 -4.6 2.68 -5.72 8.72 c-0.64 3.52 0.04 5.88 0.84 6.84 c0.4 0.48 0.8 0.56 1.08 0.56 c2 0 5.24 -2.56 6.24 -8.2 c0.6 -3.32 0.36 -6 -0.6 -7.16 c-0.28 -0.36 -0.72 -0.72 -1.8 -0.76 l-0.04 0 z M45.01500000000001 48.2 l-1.44 -4.4 c4.68 -1.56 18 -7.44 17.84 -13.56 c-0.08 -2.16 -1.44 -3.28 -3.6 -4.96 c-2.16 -1.64 -4.84 -3.68 -4.84 -7.48 c0 -6.4 7.08 -9.44 11.24 -10.24 l0.84 4.56 l-0.4 -2.28 l0.44 2.28 c-0.08 0.04 -7.48 1.56 -7.48 5.68 c0 1.44 1.08 2.32 3 3.8 c2.24 1.72 5.28 4.04 5.4 8.48 c0.36 10.68 -18.8 17.4 -21 18.12 z M86.58 9.079999999999998 l-10.64 0.36 l-5.68 35.12 l-4.56 -0.92 l5.48 -34.04 l-8.72 0.28 l-0.12 -4.64 l24.08 -0.8 z M80.465 36.16 l-2.84 -2.72 l5.6 -27.16 l4.56 0.92 l-4.88 23.52 l8.28 -2.2 l1.2 4.48 z M111.59 27.08 l-3.4 0.32 l1.52 13.16 l-4.6 0.52 l-1.52 -13.24 l-7.92 0.72 l-3.64 6.84 l-4.08 -2.16 l2.24 -4.24 l-0.44 -4.52 l3 -0.28 l8.92 -16.68 l4.32 0.84 l1.68 14.44 l3.48 -0.36 z M98.31 23.68 l4.72 -0.48 l-0.8 -6.92 z M128.435 26.119999999999997 c0.24 1.96 -0.36 3.88 -1.64 5.56 c-4.72 6 -18.4 7.72 -19.92 7.88 l-0.52 -4.6 c3.64 -0.4 13.8 -2.36 16.8 -6.16 c0.52 -0.68 0.76 -1.36 0.68 -2.12 c-0.08 -0.64 -0.32 -1.08 -0.8 -1.4 c-1.4 -0.96 -4.28 -0.96 -6.56 -0.68 l-0.8 6.32 l-4.6 -0.56 l1.96 -15.6 c-0.84 0.24 -1.72 0.48 -2.64 0.8 l-1.52 -4.36 c5.8 -2 13.48 -3.76 17.32 -0.96 c1.04 0.76 2.28 2.16 2.28 4.68 c-0.04 2.64 -1.56 4.6 -3.56 6.08 c0.24 0.16 0.52 0.32 0.76 0.48 c1.56 1.08 2.52 2.68 2.76 4.64 z M117.11500000000001 19.6 c3.36 -1.04 6.68 -2.76 6.72 -4.72 c0 -0.64 -0.2 -0.8 -0.36 -0.88 c-0.76 -0.56 -2.68 -0.76 -5.64 -0.32 z"></path></g>
    </g>
</svg>