
        <svg xmlns="http://www.w3.org/2000/svg" xmlns:xlink="http://www.w3.org/1999/xlink" version="1.1" width="3171.4285714285716" 
        height="2618.6918750410646" viewBox="0 0 3171.4285714285716 2618.6918750410646">
			
			<g transform="scale(8.571428571428571) translate(10, 10)">
				<defs id="SvgjsDefs2814"><linearGradient id="SvgjsLinearGradient2821"><stop id="SvgjsStop2822" stop-color="#ef4136" offset="0"></stop><stop id="SvgjsStop2823" stop-color="#fbb040" offset="1"></stop></linearGradient><linearGradient id="SvgjsLinearGradient2824"><stop id="SvgjsStop2825" stop-color="#ef4136" offset="0"></stop><stop id="SvgjsStop2826" stop-color="#fbb040" offset="1"></stop></linearGradient><linearGradient id="SvgjsLinearGradient2827"><stop id="SvgjsStop2828" stop-color="#ef4136" offset="0"></stop><stop id="SvgjsStop2829" stop-color="#fbb040" offset="1"></stop></linearGradient></defs><g id="SvgjsG2815" featureKey="symbolFeature-0" transform="matrix(2.188090662482735,0,0,2.188090662482735,-33.0351891699805,-176.65852255010327)" fill="url(#SvgjsLinearGradient2821)"><path xmlns="http://www.w3.org/2000/svg" d="M120.999,81.15c0,0-13.696-3.266-25.332,8.557c-8.659,8.799-11.379,15.98-14.901,24.469c2.556,2.516,5.234,5.274,7.79,7.79  c8.432-3.658,15.608-6.577,24.266-15.376C124.459,94.769,120.999,81.15,120.999,81.15z M110.041,99.663  c-2.009,2.041-5.293,2.067-7.334,0.059c-2.041-2.009-2.067-5.292-0.058-7.334c2.009-2.041,5.292-2.067,7.333-0.059  C112.024,94.338,112.05,97.622,110.041,99.663z M81.984,101.857c-10.209-3.346-13.415,7.938-13.415,7.938l9.106,1.654  C79.01,108.219,80.324,105.06,81.984,101.857z M91.003,125.157l-0.055,0.024l1.602,8.821c0,0,10.985-3.252,7.909-13.261  C97.307,122.423,94.19,123.778,91.003,125.157z M82.328,126.963c-1.89,1.921-12.465,5.709-12.465,5.709s3.619-10.633,5.509-12.554  s4.98-1.946,6.9-0.055S84.219,125.042,82.328,126.963z"></path></g><g id="SvgjsG2816" featureKey="nameFeature-0" transform="matrix(2.6417704616395294,0,0,2.6417704616395294,10.567080586863797,125.27054403793446)" fill="url(#SvgjsLinearGradient2824)"><path d="M18.08 26.119999999999997 c0.24 1.96 -0.36 3.88 -1.64 5.56 c-4.72 6 -18.4 7.72 -19.92 7.88 l-0.52 -4.6 c3.64 -0.4 13.8 -2.36 16.8 -6.16 c0.52 -0.68 0.76 -1.36 0.68 -2.12 c-0.08 -0.64 -0.32 -1.08 -0.8 -1.4 c-1.4 -0.96 -4.28 -0.96 -6.56 -0.68 l-0.8 6.32 l-4.6 -0.56 l1.96 -15.6 c-0.84 0.24 -1.72 0.48 -2.64 0.8 l-1.52 -4.36 c5.8 -2 13.48 -3.76 17.32 -0.96 c1.04 0.76 2.28 2.16 2.28 4.68 c-0.04 2.64 -1.56 4.6 -3.56 6.08 c0.24 0.16 0.52 0.32 0.76 0.48 c1.56 1.08 2.52 2.68 2.76 4.64 z M6.76 19.6 c3.36 -1.04 6.68 -2.76 6.72 -4.72 c0 -0.64 -0.2 -0.8 -0.36 -0.88 c-0.76 -0.56 -2.68 -0.76 -5.64 -0.32 z M25.005000000000003 37.48 c-1.8 0 -3.44 -0.8 -4.64 -2.24 c-2 -2.36 -2.64 -6.24 -1.84 -10.64 c1.36 -7.48 5.68 -12.6 10.4 -12.52 c2.2 0.04 4.04 0.88 5.32 2.44 c1.88 2.32 2.44 6.08 1.56 10.92 l0 0 c-1.4 7.92 -6.48 12.04 -10.8 12.04 z M28.805 16.72 c-1.72 0 -4.6 2.68 -5.72 8.72 c-0.64 3.52 0.04 5.88 0.84 6.84 c0.4 0.48 0.8 0.56 1.08 0.56 c2 0 5.24 -2.56 6.24 -8.2 c0.6 -3.32 0.36 -6 -0.6 -7.16 c-0.28 -0.36 -0.72 -0.72 -1.8 -0.76 l-0.04 0 z M42.21000000000001 37.48 c-1.8 0 -3.44 -0.8 -4.64 -2.24 c-2 -2.36 -2.64 -6.24 -1.84 -10.64 c1.36 -7.48 5.68 -12.6 10.4 -12.52 c2.2 0.04 4.04 0.88 5.32 2.44 c1.88 2.32 2.44 6.08 1.56 10.92 l0 0 c-1.4 7.92 -6.48 12.04 -10.8 12.04 z M46.010000000000005 16.72 c-1.72 0 -4.6 2.68 -5.72 8.72 c-0.64 3.52 0.04 5.88 0.84 6.84 c0.4 0.48 0.8 0.56 1.08 0.56 c2 0 5.24 -2.56 6.24 -8.2 c0.6 -3.32 0.36 -6 -0.6 -7.16 c-0.28 -0.36 -0.72 -0.72 -1.8 -0.76 l-0.04 0 z M45.01500000000001 48.2 l-1.44 -4.4 c4.68 -1.56 18 -7.44 17.84 -13.56 c-0.08 -2.16 -1.44 -3.28 -3.6 -4.96 c-2.16 -1.64 -4.84 -3.68 -4.84 -7.48 c0 -6.4 7.08 -9.44 11.24 -10.24 l0.84 4.56 l-0.4 -2.28 l0.44 2.28 c-0.08 0.04 -7.48 1.56 -7.48 5.68 c0 1.44 1.08 2.32 3 3.8 c2.24 1.72 5.28 4.04 5.4 8.48 c0.36 10.68 -18.8 17.4 -21 18.12 z M86.58 9.079999999999998 l-10.64 0.36 l-5.68 35.12 l-4.56 -0.92 l5.48 -34.04 l-8.72 0.28 l-0.12 -4.64 l24.08 -0.8 z M80.465 36.16 l-2.84 -2.72 l5.6 -27.16 l4.56 0.92 l-4.88 23.52 l8.28 -2.2 l1.2 4.48 z M111.59 27.08 l-3.4 0.32 l1.52 13.16 l-4.6 0.52 l-1.52 -13.24 l-7.92 0.72 l-3.64 6.84 l-4.08 -2.16 l2.24 -4.24 l-0.44 -4.52 l3 -0.28 l8.92 -16.68 l4.32 0.84 l1.68 14.44 l3.48 -0.36 z M98.31 23.68 l4.72 -0.48 l-0.8 -6.92 z M128.435 26.119999999999997 c0.24 1.96 -0.36 3.88 -1.64 5.56 c-4.72 6 -18.4 7.72 -19.92 7.88 l-0.52 -4.6 c3.64 -0.4 13.8 -2.36 16.8 -6.16 c0.52 -0.68 0.76 -1.36 0.68 -2.12 c-0.08 -0.64 -0.32 -1.08 -0.8 -1.4 c-1.4 -0.96 -4.28 -0.96 -6.56 -0.68 l-0.8 6.32 l-4.6 -0.56 l1.96 -15.6 c-0.84 0.24 -1.72 0.48 -2.64 0.8 l-1.52 -4.36 c5.8 -2 13.48 -3.76 17.32 -0.96 c1.04 0.76 2.28 2.16 2.28 4.68 c-0.04 2.64 -1.56 4.6 -3.56 6.08 c0.24 0.16 0.52 0.32 0.76 0.48 c1.56 1.08 2.52 2.68 2.76 4.64 z M117.11500000000001 19.6 c3.36 -1.04 6.68 -2.76 6.72 -4.72 c0 -0.64 -0.2 -0.8 -0.36 -0.88 c-0.76 -0.56 -2.68 -0.76 -5.64 -0.32 z"></path></g><g id="SvgjsG2817" featureKey="sloganFeature-0" transform="matrix(1.0599837265769168,0,0,1.0599837265769168,35,261.89761595391593)" fill="url(#SvgjsLinearGradient2827)"><path d="M1.42 18.08 l-1.42 -1.36 l2.8 -13.58 l2.28 0.46 l-2.44 11.76 l4.14 -1.1 l0.6 2.24 z M19.692500000000003 13.54 l-1.7 0.16 l0.76 6.58 l-2.3 0.26 l-0.76 -6.62 l-3.96 0.36 l-1.82 3.42 l-2.04 -1.08 l1.12 -2.12 l-0.22 -2.26 l1.5 -0.14 l4.46 -8.34 l2.16 0.42 l0.84 7.22 l1.74 -0.18 z M13.052500000000002 11.84 l2.36 -0.24 l-0.4 -3.46 z M26.405 17.6 c-0.14 0 -0.28 0 -0.4 -0.02 c-1.04 -0.14 -1.88 -0.62 -2.44 -1.4 c-1.5 -2.06 -0.74 -5.82 -0.1 -9.12 l2.28 0.44 c-0.5 2.56 -1.2 6.08 -0.3 7.32 c0.12 0.18 0.34 0.4 0.86 0.46 c0.36 0.04 0.78 -0.16 1.22 -0.6 c1.88 -1.86 3.18 -6.84 2.74 -10.44 l2.3 -0.28 c0.54 4.34 -1.02 10 -3.4 12.38 c-1.02 1 -2 1.26 -2.76 1.26 z M37.7775 18.68 l-2.28 -0.38 l1.9 -11.68 l2.18 -0.34 l3.04 5.94 l2.82 -11.18 l2.24 0.56 l-3.56 14.18 l-2.16 0.24 l-2.84 -5.54 z M59.050000000000004 11.5 l-2.24 -0.64 l0.68 -2.3 c-1.04 -0.2 -2.86 -0.14 -4.58 1.92 c-1.38 1.64 -1.32 3.54 -0.56 4.54 c0.84 1.12 2.52 1.22 4.56 0.3 l0.96 2.12 c-1.22 0.54 -2.4 0.82 -3.46 0.82 c-1.62 0 -2.98 -0.62 -3.9 -1.84 c-1.54 -2.02 -1.28 -5.16 0.62 -7.42 c2.34 -2.82 5.18 -3.06 7 -2.68 l0.46 -1.56 l2.22 0.66 z M71.7825 11.1 l-0.72 0.18 l-0.56 8.12 l-2.3 -0.16 l0.48 -7.32 l-3.76 1.02 l-0.42 2.54 l-2.28 -0.38 l1.8 -10.98 l2.28 0.38 l-0.96 5.92 l3.52 -0.94 l0.36 -5.36 l2.32 0.16 l-0.32 4.7 z M75.675 18.66 l0.42 -1.92 l2.18 0.38 l-0.4 1.94 z M105.7 9.76 l-2.38 0.9 c-0.04 0.26 -0.1 0.58 -0.18 0.94 l-1.68 10.2 l-2.28 -0.36 l0.74 -4.46 c-0.46 0.32 -0.98 0.6 -1.58 0.8 c-1.48 0.52 -2.92 0.24 -3.94 -0.76 c-1.58 -1.54 -1.94 -4.5 -0.92 -7.52 c1.06 -3.24 3.4 -4.76 5.24 -4.84 c1.42 -0.06 2.6 0.68 3.16 1.96 l-2.14 0.92 c-0.06 -0.14 -0.24 -0.58 -0.92 -0.56 c-1.02 0.04 -2.42 1.08 -3.14 3.24 c-0.8 2.38 -0.42 4.4 0.34 5.14 c0.14 0.16 0.58 0.58 1.56 0.24 c1.84 -0.66 2.74 -2.52 3.16 -3.96 l-2.46 0.94 l-0.84 -2.16 l7.44 -2.82 z M117.9125 19.7 l-1.72 1.56 l-6.86 -7.54 l-1.08 4.46 l-2.24 -0.54 l2.2 -9.24 c-0.3 0.12 -0.6 0.24 -0.92 0.38 l-0.96 -2.1 c5.1 -2.32 7.4 -1.32 8.32 -0.5 c0.92 0.8 1.24 2 0.86 3.22 c-0.56 1.84 -2.52 2.72 -4.12 3.16 z M110.7725 7.640000000000001 l-0.68 2.84 c1.3 -0.26 2.92 -0.82 3.2 -1.76 c0.08 -0.24 0.1 -0.56 -0.16 -0.8 c-0.36 -0.32 -1.14 -0.48 -2.36 -0.28 z M122.74499999999999 16.68 c-0.9 0 -1.72 -0.4 -2.32 -1.12 c-1 -1.18 -1.32 -3.12 -0.92 -5.32 c0.68 -3.74 2.84 -6.3 5.2 -6.26 c1.1 0.02 2.02 0.44 2.66 1.22 c0.94 1.16 1.22 3.04 0.78 5.46 l0 0 c-0.7 3.96 -3.24 6.02 -5.4 6.02 z M124.645 6.300000000000001 c-0.86 0 -2.3 1.34 -2.86 4.36 c-0.32 1.76 0.02 2.94 0.42 3.42 c0.2 0.24 0.4 0.28 0.54 0.28 c1 0 2.62 -1.28 3.12 -4.1 c0.3 -1.66 0.18 -3 -0.3 -3.58 c-0.14 -0.18 -0.36 -0.36 -0.9 -0.38 l-0.02 0 z M141.3575 18.32 l-2.18 -0.14 l-1.82 -6.22 l-3.38 5.68 l-2.14 -0.6 l0 -9.46 l2.32 0 l0 5.24 l2.56 -4.32 l2.12 0.26 l1.68 5.74 l4.98 -11.1 l2.1 0.94 z M149.68999999999997 18.66 l0.42 -1.92 l2.18 0.38 l-0.4 1.94 z M167.17499999999998 19 l-1.1 -2.04 c0.22 -0.14 0.5 -0.3 0.82 -0.48 l1.16 -11.24 l0.86 -0.16 c0.5 -0.1 4.9 -0.82 6.9 1.14 c0.56 0.56 1.18 1.56 0.94 3.18 c-0.76 4.7 -8.68 9.1 -9.58 9.6 z M170.19499999999996 7.24 l-0.8 7.6 c2.3 -1.64 4.76 -3.86 5.06 -5.8 c0.12 -0.78 -0.16 -1.06 -0.26 -1.16 c-0.72 -0.7 -2.66 -0.76 -4 -0.64 z M182.10749999999996 16.68 c-0.9 0 -1.72 -0.4 -2.32 -1.12 c-1 -1.18 -1.32 -3.12 -0.92 -5.32 c0.68 -3.74 2.84 -6.3 5.2 -6.26 c1.1 0.02 2.02 0.44 2.66 1.22 c0.94 1.16 1.22 3.04 0.78 5.46 l0 0 c-0.7 3.96 -3.24 6.02 -5.4 6.02 z M184.00749999999996 6.300000000000001 c-0.86 0 -2.3 1.34 -2.86 4.36 c-0.32 1.76 0.02 2.94 0.42 3.42 c0.2 0.24 0.4 0.28 0.54 0.28 c1 0 2.62 -1.28 3.12 -4.1 c0.3 -1.66 0.18 -3 -0.3 -3.58 c-0.14 -0.18 -0.36 -0.36 -0.9 -0.38 l-0.02 0 z M201.7 19.86 l-0.86 -10.3 l-2.82 5.3 l-2.12 -0.14 l-1.64 -4.42 l-1.26 6.88 l-2.28 -0.42 l2 -11.02 l2.24 -0.2 l2.22 5.96 l3.46 -6.52 l2.18 0.46 l1.18 14.22 z M209.5125 15.86 l-2.28 -0.36 l2.22 -13.06 l2.28 0.38 z M216.225 18.68 l-2.28 -0.38 l1.9 -11.68 l2.18 -0.34 l3.04 5.94 l2.82 -11.18 l2.24 0.56 l-3.56 14.18 l-2.16 0.24 l-2.84 -5.54 z M237.3975 13.54 l-1.7 0.16 l0.76 6.58 l-2.3 0.26 l-0.76 -6.62 l-3.96 0.36 l-1.82 3.42 l-2.04 -1.08 l1.12 -2.12 l-0.22 -2.26 l1.5 -0.14 l4.46 -8.34 l2.16 0.42 l0.84 7.22 l1.74 -0.18 z M230.75750000000002 11.84 l2.36 -0.24 l-0.4 -3.46 z M250.85000000000002 4.539999999999999 l-5.32 0.18 l-2.84 17.56 l-2.28 -0.46 l2.74 -17.02 l-4.36 0.14 l-0.06 -2.32 l12.04 -0.4 z M252.52250000000004 13.9 l3.9 -0.68 l0.4 2.3 l-7.88 1.34 l-0.38 -2.28 l1.46 -0.26 l0.74 -3.08 l-0.36 -2.1 l0.9 -0.16 l0.42 -1.68 l-1.5 0.26 l-0.38 -2.3 l9.14 -1.54 l0.38 2.28 l-5.16 0.88 l-0.4 1.68 l1.84 -0.32 l0.38 2.3 l-2.82 0.48 z M261.55500000000006 18.66 l0.42 -1.92 l2.18 0.38 l-0.4 1.94 z"></path></g>
			</g>
		</svg>
	